<svg width="896" height="533" viewBox="0 0 896 533" fill="none" xmlns="http://www.w3.org/2000/svg">
<g clip-path="url(#clip0_302_44)">
<path d="M457.539 66.8212C449.173 52.9846 439.259 38.2112 423.734 33.6932C405.755 28.461 387.286 38.855 371.62 49.1116C324.77 79.7859 279.652 113.028 236.473 148.686L236.52 149.223C270.137 146.905 303.753 144.587 337.369 142.269C361.657 140.594 386.779 138.688 408.242 127.198C416.387 122.838 424.326 117.014 433.556 116.608C445.022 116.104 455.02 124.113 462.877 132.479C509.355 181.971 522.805 257.657 574.948 301.139C542.068 220.052 502.808 141.7 457.539 66.8212Z" fill="#F2F2F2"/>
<path d="M124.964 60.792C124.418 61.1865 123.871 61.581 123.324 61.9665C119.298 63.9927 115.344 66.1535 111.409 68.3321C104.021 72.4204 96.7289 76.688 89.5328 81.1349C75.2145 89.984 61.3447 99.5084 47.9233 109.708C40.9658 114.998 34.1519 120.461 27.4815 126.097C26.9978 125.568 26.5311 125.022 26.0741 124.466C25.9664 124.331 25.8499 124.197 25.7514 124.053C20.6259 117.658 16.8846 110.268 14.7645 102.352C12.6443 94.4351 12.1917 86.1645 13.4351 78.0638C14.6785 69.9631 17.591 62.209 21.9879 55.2928C26.3848 48.3766 32.1704 42.449 38.978 37.8857C45.7855 33.3223 53.4668 30.2227 61.5349 28.7833C69.6031 27.3438 77.8822 27.5958 85.8479 29.5234C93.8135 31.4509 101.292 35.012 107.809 39.9809C114.327 44.9499 119.741 51.2184 123.709 58.3892C123.772 58.4968 123.835 58.6133 123.889 58.7209C124.265 59.4023 124.624 60.0927 124.964 60.792Z" fill="#046C8C"/>
<path d="M130.714 401.946C155.058 402.61 179.331 404.899 203.37 408.798C275.675 420.561 344.998 446.285 407.474 484.535C428.252 497.249 448.158 511.335 467.058 526.701C469.376 528.588 471.678 530.493 473.964 532.418C475.433 533.653 477.565 531.542 476.085 530.297C457.321 514.514 437.527 499.998 416.836 486.842C396.168 473.71 374.663 461.941 352.46 451.611C330.227 441.259 307.349 432.349 283.97 424.937C260.626 417.537 236.825 411.666 212.717 407.362C188.671 403.062 164.366 400.36 139.962 399.273C136.88 399.138 133.797 399.028 130.714 398.946C128.782 398.893 128.784 401.893 130.714 401.946Z" fill="#E4E4E4"/>
<path d="M124.96 307.12C168.539 310.168 212.134 313.267 255.54 318.279C298.99 323.296 342.288 330.263 384.709 341.031C422.213 350.551 458.952 363.084 493.917 379.721C526.607 395.275 557.793 414.244 585.946 437.051C613.704 459.539 638.525 485.789 658.381 515.537C660.883 519.285 663.305 523.084 665.647 526.934C666.651 528.58 669.247 527.074 668.238 525.42C649.304 494.714 625.746 467.112 598.395 443.59C570.979 419.799 540.362 399.817 508.047 383.345C474.239 366.304 438.823 352.663 402.319 342.622C360.092 330.804 316.84 323.04 273.379 317.453C229.529 311.816 185.433 308.399 141.345 305.272C135.883 304.885 130.422 304.501 124.96 304.12C123.033 303.985 123.042 306.986 124.96 307.12H124.96Z" fill="#E4E4E4"/>
<path d="M746.229 491.604C741.089 485.114 735.986 478.594 730.919 472.044C689.639 418.654 650.839 363.461 614.519 306.464C589.849 267.754 566.402 228.301 544.179 188.104C533.599 168.994 523.309 149.734 513.309 130.324C505.549 115.274 497.962 100.134 490.549 84.9043C488.429 80.5543 486.369 76.1843 484.319 71.8043C479.489 61.5043 474.749 51.1543 469.659 40.9943C463.859 29.4143 456.799 17.2743 446.148 9.49428C441.302 5.80833 435.506 3.57809 429.438 3.06428C420.769 2.50428 412.769 6.08428 405.249 9.99428C350.229 38.6843 298.719 74.6543 252.129 115.584C205.42 156.606 163.669 202.951 127.728 253.674C126.629 255.244 124.029 253.744 125.139 252.164C129.509 245.984 133.965 239.871 138.509 233.824C195.002 158.69 264.27 94.0792 343.148 42.9443C356.419 34.3443 369.939 26.1476 383.708 18.3543C390.648 14.4243 397.619 10.5443 404.708 6.90429C411.659 3.33429 419.039 0.124278 426.978 0.00427781C453.998 -0.415722 467.989 30.1843 477.599 50.7743C480.619 57.2543 483.675 63.7143 486.768 70.1543C498.458 94.6042 510.598 118.831 523.188 142.834C530.958 157.654 538.899 172.388 547.009 187.034C572.248 232.644 599.075 277.331 627.489 321.094C665.129 379.064 705.416 435.194 748.349 489.484C749.529 490.984 747.419 493.124 746.229 491.604Z" fill="#E4E4E4"/>
<path d="M249.458 100.475C247.889 98.7245 246.328 96.9745 244.748 95.2245C232.288 81.4445 218.919 67.8245 201.808 59.9245C193.65 56.0388 184.744 53.9744 175.708 53.8745C166.368 53.9045 157.239 56.3545 148.609 59.7845C144.529 61.4145 140.538 63.2645 136.609 65.2345C132.118 67.4945 127.708 69.9045 123.319 72.3345C115.078 76.8945 106.945 81.6545 98.9188 86.6145C82.9486 96.4845 67.4785 107.108 52.5087 118.485C44.7484 124.385 37.1483 130.478 29.7084 136.765C22.7884 142.604 16.0085 148.601 9.36852 154.755C7.94859 156.065 5.82852 153.945 7.2484 152.635C8.9984 151.005 10.7684 149.385 12.5384 147.785C17.5384 143.265 22.6185 138.831 27.7786 134.485C37.1883 126.545 46.8416 118.911 56.7386 111.584C72.1288 100.184 88.0487 89.5579 104.498 79.7045C112.719 74.7845 121.052 70.0712 129.498 65.5645C132.049 64.2045 134.629 62.8745 137.239 61.6145C143.161 58.6274 149.314 56.1226 155.639 54.1245C164.598 51.2262 174.077 50.2951 183.429 51.3945C192.458 52.7079 201.158 55.7175 209.069 60.2645C225.868 69.6545 238.898 84.1745 251.578 98.3445C252.859 99.7845 250.748 101.915 249.458 100.475Z" fill="#E4E4E4"/>
<path d="M593.682 243.272L633.939 228.548L653.926 221.237C660.436 218.856 666.93 216.146 673.659 214.441C679.609 212.934 685.654 212.687 691.52 214.669C696.696 216.584 701.433 219.521 705.451 223.304C709.556 227.084 713.375 231.163 716.877 235.507C721.229 240.737 725.517 246.021 729.823 251.288C747.597 273.025 765.255 294.857 782.797 316.783C800.339 338.709 817.763 360.727 835.07 382.839C852.419 405.005 869.649 427.264 886.759 449.615C888.855 452.354 890.95 455.093 893.042 457.834C894.198 459.348 896.805 457.855 895.633 456.32C878.396 433.744 861.039 411.26 843.562 388.868C826.042 366.424 808.401 344.074 790.639 321.82C772.877 299.566 754.995 277.408 736.993 255.347C732.508 249.851 728.016 244.361 723.516 238.877C719.721 234.251 715.968 229.575 711.805 225.27C704.163 217.367 694.616 210.382 683.188 210.193C676.468 210.081 669.966 212.213 663.723 214.472C656.993 216.907 650.279 219.387 643.557 221.845L603.019 236.672L592.884 240.379C591.086 241.037 591.863 243.937 593.682 243.272Z" fill="#E4E4E4"/>
<path d="M135.783 43.4551L133.39 45.2642C123.819 32.5827 110.348 23.3956 95.048 19.1154C79.7477 14.8352 63.465 15.6989 48.7033 21.5735C33.9416 27.4482 21.5179 38.0087 13.3424 51.6314C5.16681 65.2542 1.69188 81.1852 3.45183 96.9752C5.19415 113.119 12.3598 128.195 23.7782 139.74L21.639 141.843C9.74757 129.82 2.2849 114.12 0.470232 97.3078C-1.36263 80.8648 2.25587 64.2748 10.7694 50.0884C19.283 35.9021 32.2203 24.9046 47.5925 18.7866C62.9647 12.6687 79.9208 11.769 95.8542 16.2258C111.787 20.6826 125.816 30.2493 135.783 43.4551Z" fill="#E4E4E4"/>
<path d="M364.767 235.569C363.906 235.051 363.169 234.351 362.608 233.518C362.047 232.685 361.675 231.739 361.519 230.747C361.363 229.754 361.426 228.74 361.705 227.775C361.983 226.81 362.47 225.917 363.131 225.161L354.202 135.56L369.111 136.549L373.242 224.779C374.439 225.973 375.157 227.565 375.26 229.253C375.362 230.941 374.842 232.608 373.797 233.938C372.752 235.268 371.256 236.169 369.592 236.469C367.927 236.77 366.211 236.449 364.767 235.569V235.569Z" fill="#9E616A"/>
<path d="M375.152 132.241L371.243 161.949L371.785 180.157L355.387 181.659L352.101 166.515L350.29 126.423C350.153 123.399 351.168 120.436 353.13 118.13C355.091 115.825 357.854 114.349 360.86 113.999C363.98 113.636 367.117 114.515 369.594 116.445C372.072 118.374 373.691 121.201 374.103 124.314L375.152 132.241Z" fill="#2F2E41"/>
<path d="M312.353 393.642H302.406L297.674 355.274L312.355 355.275L312.353 393.642Z" fill="#9E616A"/>
<path d="M314.89 403.284L282.816 403.283V402.877C282.817 399.566 284.132 396.391 286.473 394.05C288.814 391.709 291.99 390.394 295.3 390.394H295.301L314.891 390.394L314.89 403.284Z" fill="#2F2E41"/>
<path d="M394.489 393.642H384.542L379.809 355.274L394.49 355.275L394.489 393.642Z" fill="#9E616A"/>
<path d="M397.025 403.284L364.952 403.283V402.877C364.952 399.566 366.267 396.391 368.608 394.05C370.95 391.709 374.125 390.394 377.436 390.394H377.436L397.026 390.394L397.025 403.284Z" fill="#2F2E41"/>
<path d="M355.808 99.8768C367.719 99.8768 377.374 90.2212 377.374 78.3105C377.374 66.3997 367.719 56.7441 355.808 56.7441C343.897 56.7441 334.242 66.3997 334.242 78.3105C334.242 90.2212 343.897 99.8768 355.808 99.8768Z" fill="#9E616A"/>
<path d="M353.021 108.632L367.988 110.343C371.627 115.504 373.987 121.457 374.872 127.71C375.758 133.963 375.144 140.337 373.08 146.306L361.787 178.975C361.787 178.975 377.464 210.402 377.464 239.581C377.464 268.76 407.319 372.913 407.319 372.913L365.295 377.297L346.958 266.344L321.69 376.85L292.843 372.154L308.731 227.269L319.23 179.581L319.677 156.325C319.677 156.325 315.213 138.874 326.386 127.702L340.026 108.695L353.021 108.632Z" fill="#2F2E41"/>
<path d="M330.668 70.6088H362.359V56.7948C355.403 54.0313 348.597 51.6812 344.482 56.7948C340.818 56.7948 337.305 58.2502 334.714 60.8408C332.123 63.4315 330.668 66.9451 330.668 70.6088Z" fill="#2F2E41"/>
<path d="M364.114 54.3569C383.059 54.3569 388.362 78.1043 388.362 91.5014C388.362 98.9729 384.983 101.645 379.673 102.549L377.798 92.5486L373.406 102.98C371.915 102.987 370.348 102.958 368.724 102.928L367.235 99.862L363.914 102.873C350.615 102.893 339.866 104.832 339.866 91.5014C339.866 78.1043 344.516 54.3569 364.114 54.3569Z" fill="#2F2E41"/>
<path opacity="0.2" d="M336.096 185.524L335.295 150.737L333.17 135.294L327.917 150.592L336.096 185.524Z" fill="black"/>
<path d="M375.954 180.884H352.139V110.884H375.954C380.51 110.889 384.878 112.702 388.1 115.923C391.321 119.145 393.134 123.513 393.139 128.069V163.699C393.134 168.255 391.321 172.624 388.1 175.845C384.878 179.067 380.51 180.879 375.954 180.884Z" fill="#83B4C4"/>
<path d="M372.639 143.384C371.843 143.383 371.081 143.067 370.518 142.505C369.956 141.942 369.64 141.18 369.639 140.384V114.384H375.639V140.384C375.638 141.18 375.321 141.942 374.759 142.505C374.197 143.067 373.434 143.383 372.639 143.384Z" fill="#3F3D56"/>
<path d="M379.851 175.384H362.426C361.422 175.383 360.459 174.984 359.749 174.274C359.039 173.564 358.64 172.601 358.639 171.597V161.172C358.64 160.168 359.039 159.205 359.749 158.495C360.459 157.785 361.422 157.385 362.426 157.384H379.851C380.855 157.385 381.818 157.785 382.528 158.495C383.238 159.205 383.638 160.168 383.639 161.172V171.597C383.638 172.601 383.238 173.564 382.528 174.274C381.818 174.984 380.855 175.383 379.851 175.384Z" fill="#3F3D56"/>
<path d="M330.236 154.091C325.726 148.77 323.139 141.04 323.139 132.884C323.139 117.445 332.335 104.884 343.639 104.884C349.707 104.884 355.425 108.511 359.325 114.835L357.623 115.885C354.095 110.165 348.998 106.884 343.639 106.884C333.438 106.884 325.139 118.548 325.139 132.884C325.139 140.574 327.553 147.833 331.762 152.798L330.236 154.091Z" fill="#83B4C4"/>
<path d="M339.956 239.189C339.045 238.572 338.28 237.762 337.716 236.817C337.152 235.873 336.801 234.815 336.69 233.721C336.578 232.626 336.708 231.52 337.07 230.48C337.432 229.441 338.017 228.494 338.785 227.705L334.343 129.146L350.596 131.114L349.87 227.888C351.109 229.266 351.8 231.05 351.811 232.903C351.823 234.756 351.154 236.549 349.932 237.942C348.711 239.335 347.02 240.231 345.181 240.461C343.343 240.691 341.484 240.239 339.956 239.189V239.189Z" fill="#9E616A"/>
<path d="M357.46 126.76L351.417 159.031L350.929 178.984L332.899 179.651L330.204 162.888L330.606 118.917C330.636 115.601 331.923 112.419 334.206 110.013C336.489 107.608 339.599 106.157 342.909 105.953C346.344 105.742 349.723 106.889 352.319 109.148C354.915 111.406 356.519 114.595 356.784 118.026L357.46 126.76Z" fill="#2F2E41"/>
<path d="M396.726 432.326C398.065 428.699 390.751 422.657 380.39 418.83C370.028 415.003 360.543 414.84 359.203 418.467C357.864 422.093 365.178 428.136 375.539 431.963C385.901 435.79 395.386 435.952 396.726 432.326Z" fill="#E6E6E6"/>
<path d="M461.285 435.396C463.218 432.048 457.03 424.857 447.465 419.334C437.899 413.811 428.577 412.048 426.644 415.396C424.711 418.744 430.899 425.936 440.465 431.458C450.03 436.981 459.352 438.744 461.285 435.396Z" fill="#E6E6E6"/>
<path d="M492.72 478.602C494.499 475.17 487.993 468.266 478.187 463.182C468.381 458.097 458.989 456.758 457.209 460.19C455.43 463.622 461.937 470.526 471.742 475.61C481.548 480.695 490.94 482.034 492.72 478.602Z" fill="#E6E6E6"/>
<path d="M556.72 493.602C558.499 490.17 551.993 483.266 542.187 478.182C532.381 473.097 522.989 471.758 521.209 475.19C519.43 478.622 525.937 485.526 535.742 490.61C545.548 495.695 554.94 497.034 556.72 493.602Z" fill="#E6E6E6"/>
<path d="M196.511 77.264C176.054 66.7498 149.855 68.8091 131.056 81.945C166.913 88.1313 202.379 96.4088 237.271 106.735C222.781 98.244 211.448 84.9406 196.511 77.264Z" fill="#F2F2F2"/>
<path d="M130.854 81.9087L126.916 85.1099C128.248 83.9894 129.633 82.939 131.055 81.9449C130.988 81.9333 130.921 81.9203 130.854 81.9087Z" fill="#F2F2F2"/>
<path d="M703.935 243.419C699.972 238.595 695.688 233.544 689.76 231.585L684.227 231.803C726.352 306.24 783.246 371.283 851.415 422.939C802.255 363.099 753.095 303.259 703.935 243.419Z" fill="#F2F2F2"/>
</g>
<defs>
<clipPath id="clip0_302_44">
<rect width="895.929" height="532.793" fill="white"/>
</clipPath>
</defs>
</svg>
